<svg xmlns="http://www.w3.org/2000/svg" width="520" height="360" viewBox="0 0 520 360">
  <defs>
    <linearGradient id="bg" x1="0" x2="1" y1="0" y2="1">
      <stop offset="0" stop-color="#e0efff"/>
      <stop offset="1" stop-color="#ffffff"/>
    </linearGradient>
    <linearGradient id="acc" x1="0" x2="1" y1="0" y2="0">
      <stop offset="0" stop-color="#2b6cb0"/>
      <stop offset="1" stop-color="#3b82f6"/>
    </linearGradient>
  </defs>

  <rect x="0" y="0" width="520" height="360" rx="24" fill="url(#bg)"/>
  <circle cx="420" cy="80" r="72" fill="#3b82f6" opacity="0.10"/>
  <circle cx="110" cy="300" r="90" fill="#2b6cb0" opacity="0.10"/>

  <rect x="80" y="70" width="360" height="230" rx="20" fill="#ffffff" stroke="rgba(15,23,42,.12)"/>

  <rect x="110" y="105" width="300" height="16" rx="8" fill="#e2e8f0"/>
  <rect x="110" y="135" width="220" height="16" rx="8" fill="#e2e8f0"/>
  <rect x="110" y="165" width="260" height="16" rx="8" fill="#e2e8f0"/>

  <rect x="110" y="205" width="150" height="14" rx="7" fill="#cbd5e1"/>
  <rect x="110" y="230" width="220" height="14" rx="7" fill="#cbd5e1"/>

  <rect x="110" y="255" width="140" height="40" rx="12" fill="url(#acc)"/>
  <text x="180" y="281" font-family="ui-sans-serif,system-ui" font-size="14" font-weight="700" fill="#ffffff">Descargar</text>

  <path d="M395 210l-20 20-20-20" fill="none" stroke="url(#acc)" stroke-width="6" stroke-linecap="round" stroke-linejoin="round"/>
  <path d="M375 175v52" fill="none" stroke="url(#acc)" stroke-width="6" stroke-linecap="round"/>
</svg>
